<svg id="I" xmlns="http://www.w3.org/2000/svg" viewBox="0 0 163.08 162.11"><defs><style>.cls-1{fill:none;stroke:#1d1d1b;}.cls-1,.cls-2{stroke-miterlimit:10;}.cls-2{fill:#73b2d9;stroke:#73b2d9;}</style></defs><path class="cls-1" d="M211.25,156.66a59.36,59.36,0,0,0,47.83,17.15,98,98,0,0,1,3.53,15.62,59.5,59.5,0,0,1-84.15-84.15,99.55,99.55,0,0,1,15.64,3.53h0A59.32,59.32,0,0,0,211.25,156.66Z" transform="translate(-160.64 -45.15)"/><path class="cls-1" d="M211.25,156.66a59.36,59.36,0,0,0,47.83,17.15,98,98,0,0,1,3.53,15.62,59.5,59.5,0,0,1-84.15-84.15,99.55,99.55,0,0,1,15.64,3.53h0A59.32,59.32,0,0,0,211.25,156.66Z" transform="translate(-160.64 -45.15)"/><path class="cls-1" d="M211.25,156.66a59.36,59.36,0,0,0,47.83,17.15,98,98,0,0,1,3.53,15.62,59.5,59.5,0,0,1-84.15-84.15,99.55,99.55,0,0,1,15.64,3.53h0A59.32,59.32,0,0,0,211.25,156.66Z" transform="translate(-160.64 -45.15)"/><path class="cls-1" d="M211.25,156.66a59.36,59.36,0,0,0,47.83,17.15,98,98,0,0,1,3.53,15.62,59.5,59.5,0,0,1-84.15-84.15,99.55,99.55,0,0,1,15.64,3.53h0A59.32,59.32,0,0,0,211.25,156.66Z" transform="translate(-160.64 -45.15)"/><path class="cls-1" d="M211.25,156.66a59.36,59.36,0,0,0,47.83,17.15,98,98,0,0,1,3.53,15.62,59.5,59.5,0,0,1-84.15-84.15,99.55,99.55,0,0,1,15.64,3.53h0A59.32,59.32,0,0,0,211.25,156.66Z" transform="translate(-160.64 -45.15)"/><path class="cls-1" d="M211.25,156.66a59.36,59.36,0,0,0,47.83,17.15,98,98,0,0,1,3.53,15.62,59.5,59.5,0,0,1-84.15-84.15,99.55,99.55,0,0,1,15.64,3.53h0A59.32,59.32,0,0,0,211.25,156.66Z" transform="translate(-160.64 -45.15)"/><path class="cls-2" d="M211.25,156.66a59.36,59.36,0,0,0,47.83,17.15,98,98,0,0,1,3.53,15.62,59.5,59.5,0,0,1-84.15-84.15,99.55,99.55,0,0,1,15.64,3.53h0A59.32,59.32,0,0,0,211.25,156.66Z" transform="translate(-160.64 -45.15)"/><path class="cls-2" d="M311.59,57.26h0a39.69,39.69,0,1,1-56.09,0A39.67,39.67,0,0,1,311.59,57.26Z" transform="translate(-160.64 -45.15)"/><path class="cls-2" d="M240.58,128.28a19.83,19.83,0,0,1-28,28.06h0a19.83,19.83,0,0,1,28.05-28.05Z" transform="translate(-160.64 -45.15)"/></svg>