<svg xmlns="http://www.w3.org/2000/svg" viewBox="0 0 306 306"><defs><style>.cls-1{fill:#e52421;}.cls-1,.cls-2,.cls-3{stroke:#1d1d1b;stroke-miterlimit:10;}.cls-2{fill:#fff;}</style></defs><g id="Camada_1" data-name="Camada 1"><path class="cls-1" d="M259,219.68a39.53,39.53,0,0,1,50.48-4.52l80.22-80.22A152.5,152.5,0,0,0,174.3,350.38l80.23-80.23A39.5,39.5,0,0,1,259,219.68Zm55.86,55.86a39.5,39.5,0,0,1-50.47,4.51L184.2,360.28A152.5,152.5,0,0,0,399.64,144.84l-80.22,80.22A39.51,39.51,0,0,1,314.9,275.54Z" transform="translate(-133.98 -94.61)"/><path class="cls-2" d="M312.36,229.59a31.49,31.49,0,1,1-9.9-9.89,31.44,31.44,0,0,1,9.9,9.89Z" transform="translate(-133.98 -94.61)"/><path class="cls-3" d="M388.49,133.68l-80.23,80.23a39.51,39.51,0,0,0-55,55l-80.22,80.23c1.56,1.72,3.17,3.4,4.83,5.06s3.35,3.28,5.07,4.84l80.22-80.23a39.51,39.51,0,0,0,55-55l80.23-80.23c-1.57-1.72-3.18-3.4-4.84-5.06S390.21,135.24,388.49,133.68ZM312.37,229.6a31.48,31.48,0,0,1-48.91,39,30.44,30.44,0,0,1-4.39-5.51,31.48,31.48,0,1,1,53.3-33.5Z" transform="translate(-133.98 -94.61)"/></g><g id="Camada_2" data-name="Camada 2"><path class="cls-2" d="M314.9,275.54a39.5,39.5,0,0,1-50.47,4.51L184.2,360.28A152.5,152.5,0,0,0,399.64,144.84l-80.22,80.22A39.51,39.51,0,0,1,314.9,275.54Z" transform="translate(-133.98 -94.61)"/></g></svg>